<svg xmlns="http://www.w3.org/2000/svg" xmlns:xlink="http://www.w3.org/1999/xlink" version="1.1" width="272" height="32"><rect id="backgroundrect" width="100%" height="100%" x="0" y="0" fill="none" stroke="none"/>






<g class="currentLayer" style=""><title>Layer 1</title><g id="svg_1">
	<path d="M31.317 9.82l-3.16-3.159c-0.775-0.775-2.043-2.043-2.818-2.818l-3.16-3.159c-0.775-0.775-2.155-0.911-3.067-0.304l-8.639 5.759c-0.912 0.608-1.257 1.907-0.767 2.887l2.203 4.405c0.067 0.135 0.145 0.278 0.231 0.427l-11.142 11.142-1 7h6v-2h4v-4h4v-4h4v-2.225c0.2 0.119 0.392 0.226 0.569 0.314l4.405 2.203c0.98 0.49 2.279 0.145 2.887-0.767l5.759-8.639c0.608-0.912 0.471-2.292-0.304-3.066zM4.707 26.707l-1.414-1.414 9.737-9.737 1.414 1.414-9.737 9.737zM28.657 13.243l-1.414 1.414c-0.389 0.389-1.025 0.389-1.414 0l-8.485-8.485c-0.389-0.389-0.389-1.025 0-1.414l1.414-1.414c0.389-0.389 1.025-0.389 1.414 0l8.485 8.485c0.389 0.389 0.389 1.025 0 1.414z" fill="#ffffff" id="svg_2"/>
</g><g id="svg_3">
	<path d="M71,14 l-8,8 l-8,-8 h5 v-12 h6 v12 zM63,22 h-15 v8 h30 v-8 h-15 zM76,26 h-4 v-2 h4 v2 z" fill="#ffffff" id="svg_4"/>
</g><g id="svg_5">
	<path d="M123.844,11.252 c-0.101,-4.022 -3.3890000000000002,-7.252 -7.433,-7.252 c-2.369,0 -4.477,1.109 -5.839,2.835 c-0.7640000000000001,-0.987 -1.959,-1.624 -3.303,-1.624 c-2.307,0 -4.176,1.871 -4.176,4.179 c0,0.201 0.015000000000000003,0.3990000000000001 0.04300000000000001,0.5920000000000001 c-0.35100000000000003,-0.06300000000000001 -0.7110000000000001,-0.09800000000000003 -1.08,-0.09800000000000003 c-3.3440000000000003,0 -6.054,2.712 -6.054,6.058 c0,3.346 2.71,6.058 6.054,6.058 h3.118 l6.828,6.828 l6.828,-6.828 l3.734,0 c3.004,-0.006000000000000002 5.438,-2.444 5.438,-5.451 c0,-2.565 -1.771,-4.716 -4.156,-5.296 zM112,26 l-6,-6 h4 v-6 h4 v6 h4 l-6,6 z" fill="#ffffff" id="svg_6"/>
</g><g id="svg_7">
	<path d="M170,14 h-2 v-6 c0,-4.418 -3.582,-8 -8,-8 s-8,3.582 -8,8 v6 h-2 c-1.1,0 -2,0.9 -2,2 v14 c0,1.1 0.9,2 2,2 h20 c1.1,0 2,-0.9 2,-2 v-14 c0,-1.1 -0.9,-2 -2,-2 zM160,26 c-1.105,0 -2,-0.8950000000000001 -2,-2 s0.8950000000000001,-2 2,-2 s2,0.8950000000000001 2,2 s-0.8950000000000001,2 -2,2 zM164,14 h-8 v-6 c0,-2.206 1.794,-4 4,-4 s4,1.794 4,4 v6 z" fill="#ffffff" id="svg_8"/>
</g><g id="svg_9" class="" fill="#6d6d6d" fill-opacity="1">
	<path d="M224,16 c0,8.837 -7.163,16 -16,16 s-16,-7.163 -16,-16 s7.163,-16 16,-16 s16,7.163 16,16 zM195,16 c0,7.18 5.82,13 13,13 s13,-5.82 13,-13 s-5.82,-13 -13,-13 s-13,5.82 -13,13 zM209.414,6.586 l8,8 c0.781,0.781 0.781,2.047 0,2.8280000000000003 s-2.047,0.781 -2.8280000000000003,0 l-4.586,-4.586 v11.172 c0,1.105 -0.8950000000000001,2 -2,2 s-2,-0.8950000000000001 -2,-2 v-11.172 l-4.586,4.586 c-0.781,0.781 -2.047,0.781 -2.829,0 c-0.39100000000000007,-0.39100000000000007 -0.5860000000000001,-0.902 -0.5860000000000001,-1.4140000000000001 s0.19500000000000003,-1.024 0.5860000000000001,-1.4140000000000001 l8,-8 c0.781,-0.781 2.047,-0.781 2.8280000000000003,0 z" fill="#6d6d6d" id="svg_10" fill-opacity="1"/>
</g><g id="svg_11">
	<path d="M268.23199999999997,6.232 l-4.465,-4.464 c-0.972,-0.972 -2.8930000000000002,-1.7680000000000002 -4.268,-1.7680000000000002 h-15 c-1.375,0 -2.5,1.125 -2.5,2.5 v27 c0,1.375 1.125,2.5 2.5,2.5 h23 c1.375,0 2.5,-1.125 2.5,-2.5 v-19 c0,-1.375 -0.796,-3.2960000000000003 -1.7680000000000002,-4.268 zM266.818,7.646 c0.09800000000000003,0.09800000000000003 0.19500000000000003,0.21800000000000003 0.29000000000000004,0.35400000000000004 h-5.108 v-5.108 c0.136,0.09500000000000003 0.256,0.19200000000000003 0.35400000000000004,0.29000000000000004 l4.465,4.464 zM268,29.5 c0,0.271 -0.22900000000000004,0.5 -0.5,0.5 h-23 c-0.271,0 -0.5,-0.22900000000000004 -0.5,-0.5 v-27 c0,-0.271 0.22900000000000004,-0.5 0.5,-0.5 h15 c0.15100000000000002,0 0.32000000000000006,0.019000000000000003 0.5,0.05300000000000001 v7.947 h7.947 c0.03400000000000001,0.18000000000000002 0.05300000000000001,0.3490000000000001 0.05300000000000001,0.5 v19 z" fill="#ffffff" id="svg_12"/>
</g></g></svg>